Coordinates
version=1
nRows=29
nColumns=24
inDegrees=yes

Units are S.I. units (second, meters, Newtons, ...)
Angles are in degrees.

endheader
time	pelvis_tilt	pelvis_list	pelvis_rotation	pelvis_tx	pelvis_ty	pelvis_tz	hip_flexion_r	hip_adduction_r	hip_rotation_r	knee_angle_r	ankle_angle_r	subtalar_angle_r	mtp_angle_r	hip_flexion_l	hip_adduction_l	hip_rotation_l	knee_angle_l	ankle_angle_l	subtalar_angle_l	mtp_angle_l	lumbar_extension	lumbar_bending	lumbar_rotation
      1.42116667	      0.56047720	      3.71232633	     -2.20302631	      0.20646043	      1.02789678	      0.32129268	     19.56167897	     -6.75973481	     -6.03118931	    -71.16367139	    -10.76393095	    -12.19197059	      5.69613960	      7.99066104	      9.40614534	      1.63911438	    -10.78348963	      4.72733131	     -9.23346325	      2.34535395	     -3.07997051	     -6.80189544	      3.48977975
      1.42533333	      0.62358855	      3.59740412	     -2.24453952	      0.21122986	      1.02866738	      0.32118409	     20.05484806	     -6.52558271	     -5.78309282	    -70.90544220	    -10.31533392	    -12.22552210	      5.63795237	      7.52076786	      9.29572509	      1.64005906	    -10.58737020	      4.84556575	     -9.18675753	      2.30468799	     -3.21991622	     -6.65761357	      3.45944656
      1.42950000	      0.69356042	      3.50446988	     -2.27637717	      0.21602124	      1.02940603	      0.32105627	     20.52803587	     -6.32503495	     -5.54608958	    -70.61114271	     -9.85154237	    -12.12172042	      5.54098790	      7.02954776	      9.21147995	      1.66513462	    -10.36176499	      4.98293613	     -9.09701465	      2.23550328	     -3.34391953	     -6.53967356	      3.41156253
      1.43366667	      0.76839730	      3.38738191	     -2.28702133	      0.22079250	      1.03015249	      0.32091319	     20.96917153	     -6.09782298	     -5.33572889	    -70.24981145	     -9.40732846	    -12.04466683	      5.43787203	      6.54044424	      9.10292084	      1.70184689	    -10.15469354	      5.11354700	     -9.02454532	      2.15740378	     -3.48796594	     -6.40473352	      3.34932997
      1.43783333	      0.80747675	      3.28293551	     -2.28266778	      0.22553125	      1.03079265	      0.32075196	     21.44107974	     -5.88501089	     -5.13528403	    -69.85356234	     -8.96434352	    -11.97352680	      5.37951974	      6.10243918	      9.00789933	      1.74434713	     -9.96759066	      5.22871038	     -8.97783114	      2.10602732	     -3.60016607	     -6.26511067	      3.29184363
      1.44200000	      0.87442283	      3.19095241	     -2.26625622	      0.23029601	      1.03144876	      0.32056125	     21.86264887	     -5.69770219	     -4.95149493	    -69.41092642	     -8.50235593	    -11.81137540	      5.30480926	      5.61885696	      8.93050342	      1.81512104	     -9.75021767	      5.35619534	     -8.90803127	      2.03518744	     -3.72531627	     -6.14799290	      3.20069803
      1.44616667	      0.93087370	      3.08584260	     -2.23223635	      0.23503700	      1.03207638	      0.32036124	     22.27376628	     -5.49524527	     -4.78466899	    -68.91109781	     -8.03825868	    -11.66405576	      5.23846515	      5.15542083	      8.83861043	      1.89619138	     -9.55034333	      5.47456206	     -8.85726244	      1.96332891	     -3.84951426	     -6.01806032	      3.10433398
      1.45033333	      0.96260922	      2.98455701	     -2.18589179	      0.23978845	      1.03262879	      0.32014785	     22.69359655	     -5.30003072	     -4.63659662	    -68.36131488	     -7.59217657	    -11.60031941	      5.21744018	      4.72296484	      8.74975851	      1.96509949	     -9.35853143	      5.59152512	     -8.82056998	      1.93142121	     -3.91702218	     -5.88208181	      3.03693775
      1.45450000	      1.02727575	      2.87006821	     -2.10477019	      0.24447459	      1.03320461	      0.31989400	     23.05474164	     -5.10035359	     -4.51050563	    -67.76433657	     -7.06729657	    -11.35250159	      5.18744806	      4.26624821	      8.65015984	      2.09382988	     -9.18992105	      5.70783628	     -8.77077269	      1.87884969	     -4.08603829	     -5.75119168	      2.91051456
      1.45866667	      1.07193156	      2.77801072	     -2.01933608	      0.24917796	      1.03370461	      0.31962553	     23.42546647	     -4.92978751	     -4.38915932	    -67.12836212	     -6.55208615	    -11.15080389	      5.16049262	      3.82476473	      8.57441497	      2.22009076	     -9.00264572	      5.82126773	     -8.73003368	      1.82244587	     -4.20030564	     -5.63738504	      2.76987069
      1.46283333	      1.11249120	      2.69198299	     -1.92256510	      0.25388839	      1.03416760	      0.31933030	     23.78326927	     -4.77586826	     -4.28452186	    -66.44731149	     -6.02531171	    -10.90514763	      5.12475144	      3.38249349	      8.50653431	      2.37107538	     -8.80346672	      5.93656127	     -8.70215679	      1.73980889	     -4.30300900	     -5.52672330	      2.57977628
      1.46700000	      1.14319012	      2.60226274	     -1.80655902	      0.25857911	      1.03457823	      0.31902321	     24.13076716	     -4.61862249	     -4.19205201	    -65.71592143	     -5.49503965	    -10.70314745	      5.09782776	      2.96371642	      8.43249685	      2.52748456	     -8.63070748	      6.04738846	     -8.67927054	      1.65837762	     -4.40103107	     -5.41399272	      2.41235554
      1.47116667	      1.18097203	      2.50940711	     -1.67343559	      0.26325962	      1.03497962	      0.31868771	     24.44716988	     -4.46705715	     -4.11896657	    -64.92883030	     -4.95954646	    -10.49712552	      5.08034228	      2.53953665	      8.35507158	      2.69816377	     -8.46106410	      6.16007628	     -8.66179390	      1.58020273	     -4.50735706	     -5.29490551	      2.23989124
      1.47533333	      1.17954320	      2.41317052	     -1.51664161	      0.26792282	      1.03528627	      0.31832815	     24.78605672	     -4.31710703	     -4.06714504	    -64.09295124	     -4.43101937	    -10.34704363	      5.07719106	      2.17601613	      8.27065759	      2.86690017	     -8.32784061	      6.27432314	     -8.64189541	      1.52836743	     -4.57309039	     -5.16861332	      2.09729264
      1.47950000	      1.21348837	      2.34444335	     -1.36745967	      0.27260130	      1.03560280	      0.31796446	     25.07484987	     -4.20381090	     -4.00590015	    -63.22348408	     -3.88429600	    -10.10512848	      5.07069685	      1.75147852	      8.21813420	      3.07030706	     -8.14362855	      6.38120067	     -8.63674944	      1.43978565	     -4.67359484	     -5.08156573	      1.84547743
      1.48366667	      1.21274660	      2.27070421	     -1.19450646	      0.27726342	      1.03582849	      0.31757501	     25.37925183	     -4.09065511	     -3.96411159	    -62.30204121	     -3.35726354	     -9.92831742	      5.06686087	      1.38141852	      8.15710414	      3.27980811	     -7.99425944	      6.48956602	     -8.63879318	      1.34495434	     -4.73774485	     -4.98568111	      1.62026387
      1.48783333	      1.18883421	      2.18090450	     -1.00233730	      0.28191767	      1.03601871	      0.31717116	     25.68047176	     -3.96476566	     -3.94518639	    -61.31347076	     -2.88167511	     -9.82590492	      5.07097391	      1.05139189	      8.07475851	      3.48260039	     -7.87640851	      6.61254156	     -8.61863071	      1.29556140	     -4.77401208	     -4.86561666	      1.47914005
      1.49200000	      1.22628492	      2.12063193	     -0.82021333	      0.28659085	      1.03624176	      0.31676159	     25.90310166	     -3.87962130	     -3.91984094	    -60.29525414	     -2.39035456	     -9.64354536	      5.07465815	      0.63229358	      8.02614772	      3.70763079	     -7.70963729	      6.72858681	     -8.61809243	      1.21562970	     -4.87461126	     -4.78541714	      1.20634296
      1.49616667	      1.19455608	      2.04802493	     -0.61463788	      0.29124291	      1.03633720	      0.31634097	     26.17653999	     -3.78325080	     -3.91381803	    -59.21952262	     -1.94683229	     -9.57435291	      5.07898128	      0.31562896	      7.95896786	      3.92513142	     -7.60072054	      6.84736973	     -8.60669117	      1.16252494	     -4.90738832	     -4.68434218	      1.03216598
      1.50033333	      1.18782856	      1.99791885	     -0.41352910	      0.29592608	      1.03644046	      0.31591718	     26.40512782	     -3.71702009	     -3.90403640	    -58.10291002	     -1.52857703	     -9.46635390	      5.07874382	     -0.05039613	      7.91612670	      4.17552090	     -7.44482147	      6.95657628	     -8.62761090	      1.07102976	     -4.95670560	     -4.61907798	      0.72168518
      1.50450000	      1.14983357	      1.94330704	     -0.20189624	      0.30057437	      1.03644720	      0.31549224	     26.64928252	     -3.64604125	     -3.90236735	    -56.93766632	     -1.14886525	     -9.45081697	      5.07903058	     -0.35365525	      7.86470964	      4.39588787	     -7.34741403	      7.07897750	     -8.61358361	      1.02240174	     -4.97571412	     -4.53858062	      0.57178120
      1.50866667	      1.09916721	      1.88868450	      0.01402469	      0.30525593	      1.03641299	      0.31506002	     26.88398417	     -3.58365302	     -3.91710765	    -55.72306342	     -0.80816027	     -9.44004254	      5.07587268	     -0.65379942	      7.81126786	      4.62926935	     -7.23051378	      7.20725607	     -8.60524672	      0.97305719	     -4.98258594	     -4.45915674	      0.36415523
      1.51283333	      1.09824009	      1.85682489	      0.22166236	      0.30994358	      1.03642789	      0.31464223	     27.04391944	     -3.54457733	     -3.91918177	    -54.46016670	     -0.53324764	     -9.45258381	      5.05654516	     -1.02369991	      7.78171611	      4.89389697	     -7.07856975	      7.30498149	     -8.64545553	      0.86919846	     -5.03645178	     -4.41899447	     -0.00108530
      1.51700000	      1.01890877	      1.81930776	      0.44166158	      0.31463391	      1.03628800	      0.31422234	     27.27106285	     -3.50688210	     -3.94488962	    -53.15813836	     -0.26485022	     -9.50578343	      5.04334670	     -1.28403116	      7.74196279	      5.11787029	     -6.97989466	      7.43205831	     -8.63866628	      0.81694853	     -5.01105005	     -4.36219308	     -0.14456136
      1.52116667	      0.98995406	      1.79029070	      0.65128253	      0.31933904	      1.03618721	      0.31381449	     27.41994793	     -3.47451178	     -3.95944862	    -51.80301735	     -0.09320793	     -9.61014323	      5.00569799	     -1.61705057	      7.71102856	      5.37096837	     -6.84485519	      7.54044026	     -8.67690430	      0.71396930	     -5.02478413	     -4.32794828	     -0.46313172
      1.52533333	      0.91835370	      1.77500301	      0.86301770	      0.32405560	      1.03599869	      0.31341833	     27.59809374	     -3.46134113	     -3.98174534	    -50.41239987	      0.07312456	     -9.72286932	      4.96120758	     -1.89641094	      7.69181767	      5.61243568	     -6.72708721	      7.65150892	     -8.70271066	      0.61523965	     -4.99564929	     -4.30437754	     -0.68611410
      1.52950000	      0.85991263	      1.74857290	      1.07043048	      0.32879470	      1.03581483	      0.31303464	     27.73378405	     -3.43507914	     -4.01068241	    -48.96445471	      0.19016521	     -9.87504045	      4.90649370	     -2.19343429	      7.65844579	      5.84565302	     -6.60427393	      7.76265249	     -8.71967617	      0.51736953	     -4.98500958	     -4.26946788	     -0.90611020
      1.53366667	      0.77636348	      1.74252276	      1.27292089	      0.33352691	      1.03552874	      0.31266272	     27.88750759	     -3.43151933	     -4.03125873	    -47.50132142	      0.35250881	     -9.97705347	      4.87815828	     -2.45330930	      7.64576623	      6.06097210	     -6.50361896	      7.88327201	     -8.68630674	      0.47722646	     -4.92752998	     -4.24078133	     -1.01428947
      1.53783333	      0.70782807	      1.73411940	      1.46839770	      0.33830016	      1.03526730	      0.31232497	     27.99471718	     -3.42221731	     -4.06594771	    -45.96764129	      0.32261347	    -10.24345595	      4.78648164	     -2.75007048	      7.62740602	      6.29110258	     -6.36103327	      7.98187507	     -8.75143517	      0.35700144	     -4.92345109	     -4.24820704	     -1.34378691
